<svg id="Group_2_copy_3" data-name="Group 2 copy 3" xmlns="http://www.w3.org/2000/svg" xmlns:xlink="http://www.w3.org/1999/xlink" width="385.28" height="356.688" viewBox="0 0 385.28 356.688">
  <metadata><?xpacket begin="﻿" id="W5M0MpCehiHzreSzNTczkc9d"?>
<x:xmpmeta xmlns:x="adobe:ns:meta/" x:xmptk="Adobe XMP Core 5.6-c140 79.160451, 2017/05/06-01:08:21        ">
   <rdf:RDF xmlns:rdf="http://www.w3.org/1999/02/22-rdf-syntax-ns#">
      <rdf:Description rdf:about=""/>
   </rdf:RDF>
</x:xmpmeta>

<?xpacket end="w"?></metadata>
<defs>
    <style>
      .cls-1 {
        filter: url(#filter);
      }

      .cls-2 {
        fill: #fff tranparent;
      }

      .cls-2, .cls-3, .cls-5, .cls-6 {
        fill-rule: evenodd;
      }

      .cls-3 {
        fill: #31d3ac;
      }

      .cls-4 {
        fill: #2addaa;
      }

      .cls-5, .cls-8 {
        fill: #2adcaa;
      }

      .cls-6 {
        fill: #367e87;
      }

      .cls-7 {
        filter: url(#filter-2);
      }

      .cls-9 {
        filter: url(#filter-3);
      }
    </style>
    <filter id="filter" filterUnits="userSpaceOnUse">
      <feFlood result="flood" flood-color="#2adcaa"/>
      <feComposite result="composite" operator="in" in2="SourceGraphic"/>
      <feBlend result="blend" in2="SourceGraphic"/>
    </filter>
    <filter id="filter-2" filterUnits="userSpaceOnUse">
      <feFlood result="flood"/>
      <feComposite result="composite" operator="in" in2="SourceGraphic"/>
      <feBlend result="blend" in2="SourceGraphic"/>
    </filter>
    <filter id="filter-3" filterUnits="userSpaceOnUse">
      <feFlood result="flood" flood-color="rgba( 255, 255, 255, 1)"/>
      <feComposite result="composite" operator="in" in2="SourceGraphic"/>
      <feBlend result="blend" in2="SourceGraphic"/>
    </filter>
  </defs>
  <g class="cls-1">
    <path id="Shape_1_copy_4" data-name="Shape 1 copy 4" class="cls-2" d="M7380.24,294.981s-31.43,13.785-55.36,46.277c-20.2,27.422-23.68,56.348-24.41,71.194-1.74,35.63,16.14,77.412,60.72,119.844,50.96,48.513,101.08,67.519,141.67,62.888s81.75-28.932,116.08-84.84c-56.88,92.619-132.19,89.624-230.96,8.9C7263.6,417.593,7380.24,294.981,7380.24,294.981Z" transform="translate(-7300.38 -239.156)"/>
    <path id="Ellipse_4_copy_10" data-name="Ellipse 4 copy 10" class="cls-3" d="M7345.16,544.975a10.062,10.062,0,1,1-10.09,10.063A10.078,10.078,0,0,1,7345.16,544.975Z" transform="translate(-7300.38 -239.156)"/>
    <circle id="Ellipse_4_copy_10-2" data-name="Ellipse 4 copy 10" class="cls-4" cx="340.465" cy="95.579" r="12.315"/>
    <path id="Ellipse_4_copy_10-3" data-name="Ellipse 4 copy 10" class="cls-5" d="M7611.72,240.251a26.837,26.837,0,1,1-26.87,26.837A26.855,26.855,0,0,1,7611.72,240.251Z" transform="translate(-7300.38 -239.156)"/>
    <path id="Shape_2_copy_3" data-name="Shape 2 copy 3" class="cls-6" d="M7463.58,310.406s-62.9,24.254-59.53,60.515a158.619,158.619,0,0,0,10.71,43.31c6.27,16.133,17.46,55.256,20.8,68.357,7.32,28.809,19.41,65.127,39.33,66.911,26.09,1.764,30.48-45.079,34.01-78.59,1.73-16.39,2.59-28.154,7.06-32.352,3.31-3.107,7.03-5.156,13.26-6.355,8.71-1.677,17.93-.284,24.84-3.138a19.409,19.409,0,0,0,11.9-14.833c1.07-5.893-2.12-12.645-7.73-21.952,7.97,13.217-2.88,23.094-11.32,27.293-9.21,4.587-19.18,4.5-26.78,7.711-5,2.109-8.76,4.466-10.12,7.12-3.69,7.2-4.24,22.621-4.5,39.558-0.46,30.177-1.28,65.189-26.46,67.233-12.38,1.006-21.66-6.455-26.78-21.358a188.773,188.773,0,0,1-8.93-37.377c-1.89-13.641-4.26-24.528-5.96-35.6-7.99-52.274-19.01-55.961-17.85-92.552C7420.31,329.467,7463.58,310.406,7463.58,310.406Z" transform="translate(-7300.38 -239.156)"/>
  </g>
  <g id="Group_1_copy" data-name="Group 1 copy" class="cls-7">
    <path id="Shape_1_copy_4-2" data-name="Shape 1 copy 4" class="cls-5" d="M7538.67,302.784c-2.36-14.577-56.82-19.163-90-13.056-18.99,3.5-32.72,8.22-55.32,20.415-51.74,27.908-64.57,67.663-66.02,97.12s13.36,64,50.25,99.084c42.18,40.109,83.65,55.822,117.25,51.994s67.65-23.919,96.06-70.144c27.85-45.293,29.11-83.256,21.68-105.949-6.53-19.954-23.04-41.826-55.67-45.128-39.09-3.956-79.63,9.467-75.37,33.845,3.08,17.627,17.73,15.123,42.86,12.263,4.25-.484,16.13.349,18.23,14.715,0.69,4.78-4.79,12.674-12.81,15.7-10.79,4.068-25.35,4.375-29.07,12.264-10.5,22.3,7.73,85.976-27.09,87.8-11.64.61-21.23-7.225-27.65-45.5-2.45-14.6-5.15-34.208-9.67-53.738-6.79-29.323-12.13-36.509-10.96-51.347,1.09-13.97,6.23-23.28,30.05-36.789,8.27-4.693,23.7-9.759,37.04-11.969C7516.68,310.343,7539.88,310.249,7538.67,302.784Z" transform="translate(-7300.38 -239.156)"/>
    <path id="Shape_1_copy_4-3" data-name="Shape 1 copy 4" class="cls-2" d="M7393.35,310.143s-26.01,11.4-45.82,38.26c-16.72,22.672-19.6,46.587-20.2,58.86-1.44,29.458,13.36,64,50.25,99.084,42.18,40.109,83.65,55.822,117.25,51.994s67.65-23.919,96.06-70.144c-47.07,76.576-109.39,74.1-191.14,7.359C7296.82,411.515,7393.35,310.143,7393.35,310.143Z" transform="translate(-7300.38 -239.156)"/>
    <path id="Ellipse_4_copy_10-4" data-name="Ellipse 4 copy 10" class="cls-3" d="M7343.64,523.75a8.325,8.325,0,1,1-8.34,8.326A8.328,8.328,0,0,1,7343.64,523.75Z" transform="translate(-7300.38 -239.156)"/>
    <circle id="Ellipse_4_copy_10-5" data-name="Ellipse 4 copy 10" class="cls-4" cx="375.075" cy="132.266" r="10.205"/>
    <circle id="Ellipse_4_copy_10-6" data-name="Ellipse 4 copy 10" class="cls-8" cx="284.56" cy="47.938" r="22.25"/>
    <path id="Shape_2_copy_3-2" data-name="Shape 2 copy 3" class="cls-6" d="M7462.32,322.9s-52.05,20.054-49.27,50.033a130.909,130.909,0,0,0,8.87,35.806c5.18,13.34,14.45,45.683,17.21,56.517,6.06,23.817,16.06,53.844,32.55,55.32,21.59,1.458,25.23-37.271,28.15-64.977,1.42-13.55,2.14-23.276,5.84-26.748,2.73-2.569,5.82-4.263,10.97-5.253,7.21-1.387,14.84-.234,20.56-2.6a16.066,16.066,0,0,0,9.85-12.264c0.88-4.872-1.76-10.455-6.4-18.147,6.59,10.926-2.38,19.091-9.36,22.562-7.63,3.793-15.88,3.726-22.17,6.378-4.14,1.741-7.25,3.691-8.38,5.885-3.05,5.957-3.51,18.7-3.72,32.706-0.38,24.949-1.06,53.894-21.9,55.585-10.24.834-17.92-5.336-22.16-17.657a156.4,156.4,0,0,1-7.39-30.9c-1.57-11.277-3.53-20.279-4.93-29.43-6.62-43.218-15.73-46.268-14.78-76.52C7426.51,338.653,7462.32,322.9,7462.32,322.9Z" transform="translate(-7300.38 -239.156)"/>
  </g>
  <g id="Group_1_copy_2" data-name="Group 1 copy 2" class="cls-9">
    <path id="Shape_1_copy_4-4" data-name="Shape 1 copy 4" class="cls-5" d="M7549.37,329.306c-2.21-13.578-53.07-17.849-84.06-12.161-17.74,3.257-30.56,7.656-51.67,19.014-48.32,25.994-60.31,63.024-61.66,90.461s12.48,59.614,46.93,92.29c39.4,37.358,78.13,51.994,109.51,48.429s63.18-22.28,89.72-65.333c26.01-42.186,27.18-77.547,20.25-98.685-6.1-18.586-21.52-38.958-51.99-42.033-36.52-3.685-74.38,8.818-70.4,31.525,2.87,16.417,16.56,14.085,40.03,11.42,3.97-.449,15.06.327,17.02,13.707,0.65,4.452-4.47,11.805-11.96,14.621-10.08,3.787-23.68,4.075-27.15,11.422-9.81,20.77,7.22,80.081-25.3,81.78-10.87.569-19.83-6.729-25.83-42.383-2.29-13.6-4.81-31.86-9.03-50.052-6.34-27.31-11.32-34-10.24-47.825,1.03-13.013,5.83-21.685,28.07-34.266,7.73-4.37,22.14-9.089,34.59-11.148C7528.83,336.347,7550.5,336.259,7549.37,329.306Z" transform="translate(-7300.38 -239.156)"/>
    <path id="Shape_1_copy_4-5" data-name="Shape 1 copy 4" class="cls-2" d="M7413.64,336.159s-24.29,10.618-42.79,35.637c-15.62,21.117-18.31,43.394-18.87,54.824-1.35,27.44,12.48,59.614,46.93,92.29,39.4,37.358,78.13,51.994,109.51,48.429s63.18-22.28,89.72-65.333c-43.96,71.324-102.17,69.016-178.52,6.853C7323.48,430.58,7413.64,336.159,7413.64,336.159Z" transform="translate(-7300.38 -239.156)"/>
    <path id="Ellipse_4_copy_10-7" data-name="Ellipse 4 copy 10" class="cls-3" d="M7378.74,535.125a7.75,7.75,0,1,1-7.79,7.749A7.771,7.771,0,0,1,7378.74,535.125Z" transform="translate(-7300.38 -239.156)"/>
    <circle id="Ellipse_4_copy_10-8" data-name="Ellipse 4 copy 10" class="cls-4" cx="340.445" cy="133.219" r="9.515"/>
    <circle id="Ellipse_4_copy_10-9" data-name="Ellipse 4 copy 10" class="cls-8" cx="290.51" cy="20.672" r="20.8"/>
    <path id="Shape_2_copy_3-3" data-name="Shape 2 copy 3" class="cls-6" d="M7478.05,348.038s-48.61,18.679-46.01,46.6a121.573,121.573,0,0,0,8.28,33.35c4.84,12.425,13.5,42.551,16.07,52.642,5.67,22.183,15.01,50.15,30.4,51.527,20.18,1.358,23.57-34.716,26.3-60.522,1.33-12.622,2-21.681,5.45-24.915,2.56-2.391,5.44-3.969,10.25-4.893,6.74-1.291,13.86-.218,19.2-2.416a14.941,14.941,0,0,0,9.2-11.423c0.83-4.538-1.64-9.737-5.98-16.9,6.16,10.177-2.22,17.785-8.74,21.017-7.13,3.532-14.83,3.469-20.71,5.939-3.86,1.624-6.77,3.44-7.82,5.483-2.85,5.549-3.28,17.418-3.47,30.462-0.36,23.239-.99,50.2-20.45,51.775-9.57.774-16.75-4.97-20.71-16.447a145.466,145.466,0,0,1-6.9-28.783c-1.46-10.5-3.29-18.891-4.6-27.412-6.19-40.257-14.7-43.1-13.81-71.273C7444.61,362.716,7478.05,348.038,7478.05,348.038Z" transform="translate(-7300.38 -239.156)"/>
  </g>
</svg>
