<svg xmlns="http://www.w3.org/2000/svg" width="46" height="35" viewBox="0 0 46 35">
  <metadata><?xpacket begin="﻿" id="W5M0MpCehiHzreSzNTczkc9d"?>
<x:xmpmeta xmlns:x="adobe:ns:meta/" x:xmptk="Adobe XMP Core 5.6-c140 79.160451, 2017/05/06-01:08:21        ">
   <rdf:RDF xmlns:rdf="http://www.w3.org/1999/02/22-rdf-syntax-ns#">
      <rdf:Description rdf:about=""/>
   </rdf:RDF>
</x:xmpmeta>
                                                                                                    
                                                                                                    
                                                                                                    
                                                                                                    
                                                                                                    
                                                                                                    
                                                                                                    
                                                                                                    
                                                                                                    
                                                                                                    
                                                                                                    
                                                                                                    
                                                                                                    
                                                                                                    
                                                                                                    
                                                                                                    
                                                                                                    
                                                                                                    
                                                                                                    
                                                                                                    
                           
<?xpacket end="w"?></metadata>
<defs>
    <style>
      .cls-1 {
        fill-rule: evenodd;
      }
    </style>
  </defs>
  <path id="Shape_1784_copy_5" data-name="Shape 1784 copy 5" class="cls-1" d="M8353,697.36v13.962a2.5,2.5,0,0,0,2.4,2.613h2.47a0.956,0.956,0,0,0,0-1.912h-2.4a0.648,0.648,0,0,1-.51-0.7V698.316l13.02-10.517,13.08,10.517v13.07a0.65,0.65,0,0,1-.51.7H8366.4a0.957,0.957,0,0,0,0,1.914h14.15a2.5,2.5,0,0,0,2.4-2.615V697.36l-14.97-11.984Zm37.6-.253L8367.98,679l-22.62,18.107a0.931,0.931,0,0,0-.13,1.336,0.918,0.918,0,0,0,1.33.128l21.48-17.15,21.49,17.15a0.961,0.961,0,0,0,.56.192,0.977,0.977,0,0,0,.76-0.382A0.943,0.943,0,0,0,8390.6,697.107Z" transform="translate(-8345 -679)"/>
</svg>
